<?xml version="1.0" encoding="UTF-8" standalone="no"?>
<!DOCTYPE svg PUBLIC "-//W3C//DTD SVG 1.1//EN"
 "http://www.w3.org/Graphics/SVG/1.1/DTD/svg11.dtd">
<!-- Generated by graphviz version 2.40.1 (20161225.0304)
 -->
<!-- Title: %3 Pages: 1 -->
<svg width="1277pt" height="743pt"
 viewBox="0.00 0.00 1277.00 743.00" xmlns="http://www.w3.org/2000/svg" xmlns:xlink="http://www.w3.org/1999/xlink">
<g id="graph0" class="graph" transform="scale(1 1) rotate(0) translate(4 739)">
<title>%3</title>
<polygon fill="#ffffff" stroke="transparent" points="-4,4 -4,-739 1273,-739 1273,4 -4,4"/>
<text text-anchor="middle" x="634.5" y="-7.8" font-family="Times,serif" font-size="14.00" fill="#000000">Network Topology</text>
<!-- r5 -->
<g id="node1" class="node">
<title>r5</title>
<polygon fill="none" stroke="#000000" points="104,-627 0,-627 0,-506 104,-506 104,-627"/>
<image xlink:href="R.png" width="104px" height="81px" preserveAspectRatio="xMinYMin meet" x="0" y="-607"/>
<text text-anchor="middle" x="52" y="-509.8" font-family="Times,serif" font-size="14.00" fill="#ff0000">r5</text>
</g>
<!-- sw1 -->
<g id="node5" class="node">
<title>sw1</title>
<polygon fill="none" stroke="#000000" points="393,-531 289,-531 289,-410 393,-410 393,-531"/>
<image xlink:href="R.png" width="104px" height="81px" preserveAspectRatio="xMinYMin meet" x="289" y="-511"/>
<text text-anchor="middle" x="341" y="-413.8" font-family="Times,serif" font-size="14.00" fill="#ff0000">sw1</text>
</g>
<!-- r5&#45;&#45;sw1 -->
<g id="edge4" class="edge">
<title>r5&#45;&#45;sw1</title>
<path fill="none" stroke="#000000" stroke-width="2" d="M104.0012,-518.5C156.3293,-518.5 236.5769,-518.5 288.9296,-518.5"/>
<text text-anchor="middle" x="196.5" y="-569.9" font-family="Courier,monospace" font-size="12.00" fill="#0000ff"> &#160;&#160;&#160;&#160;&#160;&#160;&#160;&#160;&#160;&#160;&#160;&#160;&#160;&#160;</text>
<text text-anchor="middle" x="269.9296" y="-508.9" font-family="Courier,monospace" font-size="12.00" fill="#0000ff">Et0/2</text>
<text text-anchor="middle" x="123.0012" y="-508.9" font-family="Courier,monospace" font-size="12.00" fill="#0000ff">Et0/0</text>
</g>
<!-- sw4 -->
<g id="node2" class="node">
<title>sw4</title>
<polygon fill="none" stroke="#000000" points="980,-326 876,-326 876,-205 980,-205 980,-326"/>
<image xlink:href="R.png" width="104px" height="81px" preserveAspectRatio="xMinYMin meet" x="876" y="-306"/>
<text text-anchor="middle" x="928" y="-208.8" font-family="Times,serif" font-size="14.00" fill="#ff0000">sw4</text>
</g>
<!-- sw7 -->
<g id="node6" class="node">
<title>sw7</title>
<polygon fill="none" stroke="#000000" points="1269,-144 1165,-144 1165,-23 1269,-23 1269,-144"/>
<image xlink:href="R.png" width="104px" height="81px" preserveAspectRatio="xMinYMin meet" x="1165" y="-124"/>
<text text-anchor="middle" x="1217" y="-26.8" font-family="Times,serif" font-size="14.00" fill="#ff0000">sw7</text>
</g>
<!-- sw4&#45;&#45;sw7 -->
<g id="edge11" class="edge">
<title>sw4&#45;&#45;sw7</title>
<path fill="none" stroke="#000000" stroke-width="2" d="M980.0012,-210.5C1063.2061,-210.5 1217,-210.5 1217,-210.5 1217,-210.5 1217,-176.7346 1217,-144.0244"/>
<text text-anchor="middle" x="1072.5" y="-86.9" font-family="Courier,monospace" font-size="12.00" fill="#0000ff"> &#160;&#160;&#160;&#160;&#160;&#160;&#160;&#160;&#160;&#160;&#160;&#160;&#160;&#160;</text>
<text text-anchor="middle" x="1198" y="-147.4244" font-family="Courier,monospace" font-size="12.00" fill="#0000ff">Et0/0</text>
<text text-anchor="middle" x="999.0012" y="-200.9" font-family="Courier,monospace" font-size="12.00" fill="#0000ff">Et0/3</text>
</g>
<!-- sw8 -->
<g id="node7" class="node">
<title>sw8</title>
<polygon fill="none" stroke="#000000" points="1269,-337 1165,-337 1165,-216 1269,-216 1269,-337"/>
<image xlink:href="R.png" width="104px" height="81px" preserveAspectRatio="xMinYMin meet" x="1165" y="-317"/>
<text text-anchor="middle" x="1217" y="-219.8" font-family="Times,serif" font-size="14.00" fill="#ff0000">sw8</text>
</g>
<!-- sw4&#45;&#45;sw8 -->
<g id="edge12" class="edge">
<title>sw4&#45;&#45;sw8</title>
<path fill="none" stroke="#000000" stroke-width="2" d="M980.0012,-271C1032.3293,-271 1112.5769,-271 1164.9296,-271"/>
<text text-anchor="middle" x="1072.5" y="-279.9" font-family="Courier,monospace" font-size="12.00" fill="#0000ff"> &#160;&#160;&#160;&#160;&#160;&#160;&#160;&#160;&#160;&#160;&#160;&#160;&#160;&#160;</text>
<text text-anchor="middle" x="1145.9296" y="-261.4" font-family="Courier,monospace" font-size="12.00" fill="#0000ff">Et0/0</text>
<text text-anchor="middle" x="999.0012" y="-261.4" font-family="Courier,monospace" font-size="12.00" fill="#0000ff">Et0/2</text>
</g>
<!-- sw3 -->
<g id="node3" class="node">
<title>sw3</title>
<polygon fill="none" stroke="#000000" points="686.5,-706 582.5,-706 582.5,-585 686.5,-585 686.5,-706"/>
<image xlink:href="R.png" width="104px" height="81px" preserveAspectRatio="xMinYMin meet" x="582.5" y="-686"/>
<text text-anchor="middle" x="634.5" y="-588.8" font-family="Times,serif" font-size="14.00" fill="#ff0000">sw3</text>
</g>
<!-- sw5 -->
<g id="node9" class="node">
<title>sw5</title>
<polygon fill="none" stroke="#000000" points="980,-536 876,-536 876,-415 980,-415 980,-536"/>
<image xlink:href="R.png" width="104px" height="81px" preserveAspectRatio="xMinYMin meet" x="876" y="-516"/>
<text text-anchor="middle" x="928" y="-418.8" font-family="Times,serif" font-size="14.00" fill="#ff0000">sw5</text>
</g>
<!-- sw3&#45;&#45;sw5 -->
<g id="edge10" class="edge">
<title>sw3&#45;&#45;sw5</title>
<path fill="none" stroke="#000000" stroke-width="2" d="M686.6337,-599.5C770.9739,-599.5 928,-599.5 928,-599.5 928,-599.5 928,-567.5237 928,-536.047"/>
<text text-anchor="middle" x="783.5" y="-587.9" font-family="Courier,monospace" font-size="12.00" fill="#0000ff"> &#160;&#160;&#160;&#160;&#160;&#160;&#160;&#160;&#160;&#160;&#160;&#160;&#160;&#160;</text>
<text text-anchor="middle" x="909" y="-539.447" font-family="Courier,monospace" font-size="12.00" fill="#0000ff">Et0/0</text>
<text text-anchor="middle" x="705.6337" y="-589.9" font-family="Courier,monospace" font-size="12.00" fill="#0000ff">Et0/3</text>
</g>
<!-- sw6 -->
<g id="node11" class="node">
<title>sw6</title>
<polygon fill="none" stroke="#000000" points="980,-735 876,-735 876,-614 980,-614 980,-735"/>
<image xlink:href="R.png" width="104px" height="81px" preserveAspectRatio="xMinYMin meet" x="876" y="-715"/>
<text text-anchor="middle" x="928" y="-617.8" font-family="Times,serif" font-size="14.00" fill="#ff0000">sw6</text>
</g>
<!-- sw3&#45;&#45;sw6 -->
<g id="edge9" class="edge">
<title>sw3&#45;&#45;sw6</title>
<path fill="none" stroke="#000000" stroke-width="2" d="M686.6337,-660C740.0052,-660 822.484,-660 875.8584,-660"/>
<text text-anchor="middle" x="783.5" y="-677.9" font-family="Courier,monospace" font-size="12.00" fill="#0000ff"> &#160;&#160;&#160;&#160;&#160;&#160;&#160;&#160;&#160;&#160;&#160;&#160;&#160;&#160;</text>
<text text-anchor="middle" x="856.8584" y="-650.4" font-family="Courier,monospace" font-size="12.00" fill="#0000ff">Et0/3</text>
<text text-anchor="middle" x="705.6337" y="-650.4" font-family="Courier,monospace" font-size="12.00" fill="#0000ff">Et1/0</text>
</g>
<!-- router -->
<g id="node4" class="node">
<title>router</title>
<polygon fill="none" stroke="#000000" points="1269,-536 1165,-536 1165,-415 1269,-415 1269,-536"/>
<image xlink:href="R.png" width="104px" height="81px" preserveAspectRatio="xMinYMin meet" x="1165" y="-516"/>
<text text-anchor="middle" x="1217" y="-418.8" font-family="Times,serif" font-size="14.00" fill="#ff0000">router</text>
</g>
<!-- sw1&#45;&#45;sw3 -->
<g id="edge6" class="edge">
<title>sw1&#45;&#45;sw3</title>
<path fill="none" stroke="#000000" stroke-width="2" d="M341,-531.2226C341,-564.6813 341,-599.5 341,-599.5 341,-599.5 498.0261,-599.5 582.3663,-599.5"/>
<text text-anchor="middle" x="485.5" y="-587.9" font-family="Courier,monospace" font-size="12.00" fill="#0000ff"> &#160;&#160;&#160;&#160;&#160;&#160;&#160;&#160;&#160;&#160;&#160;&#160;&#160;&#160;</text>
<text text-anchor="middle" x="563.3663" y="-589.9" font-family="Courier,monospace" font-size="12.00" fill="#0000ff">Et0/0</text>
<text text-anchor="middle" x="322" y="-534.6226" font-family="Courier,monospace" font-size="12.00" fill="#0000ff">Et1/0</text>
</g>
<!-- sw1&#45;&#45;sw5 -->
<g id="edge7" class="edge">
<title>sw1&#45;&#45;sw5</title>
<path fill="none" stroke="#000000" stroke-width="2" d="M393.0923,-492.3333C504.3454,-492.3333 764.0799,-492.3333 875.6032,-492.3333"/>
<text text-anchor="middle" x="634.5" y="-473.9" font-family="Courier,monospace" font-size="12.00" fill="#0000ff"> &#160;&#160;&#160;&#160;&#160;&#160;&#160;&#160;&#160;&#160;&#160;&#160;&#160;&#160;</text>
<text text-anchor="middle" x="856.6032" y="-482.7333" font-family="Courier,monospace" font-size="12.00" fill="#0000ff">Et0/2</text>
<text text-anchor="middle" x="412.0923" y="-482.7333" font-family="Courier,monospace" font-size="12.00" fill="#0000ff">Et1/1</text>
</g>
<!-- sw2 -->
<g id="node13" class="node">
<title>sw2</title>
<polygon fill="none" stroke="#000000" points="686.5,-326 582.5,-326 582.5,-205 686.5,-205 686.5,-326"/>
<image xlink:href="R.png" width="104px" height="81px" preserveAspectRatio="xMinYMin meet" x="582.5" y="-306"/>
<text text-anchor="middle" x="634.5" y="-208.8" font-family="Times,serif" font-size="14.00" fill="#ff0000">sw2</text>
</g>
<!-- sw1&#45;&#45;sw2 -->
<g id="edge5" class="edge">
<title>sw1&#45;&#45;sw2</title>
<path fill="none" stroke="#000000" stroke-width="2" d="M393.2225,-453.6667C477.7064,-453.6667 635,-453.6667 635,-453.6667 635,-453.6667 635,-381.08 635,-326.0729"/>
<text text-anchor="middle" x="485.5" y="-388.9" font-family="Courier,monospace" font-size="12.00" fill="#0000ff"> &#160;&#160;&#160;&#160;&#160;&#160;&#160;&#160;&#160;&#160;&#160;&#160;&#160;&#160;</text>
<text text-anchor="middle" x="616" y="-329.4729" font-family="Courier,monospace" font-size="12.00" fill="#0000ff">Et0/0</text>
<text text-anchor="middle" x="412.2225" y="-444.0667" font-family="Courier,monospace" font-size="12.00" fill="#0000ff">Et0/3</text>
</g>
<!-- r10 -->
<g id="node8" class="node">
<title>r10</title>
<polygon fill="none" stroke="#000000" points="393,-326 289,-326 289,-205 393,-205 393,-326"/>
<image xlink:href="R.png" width="104px" height="81px" preserveAspectRatio="xMinYMin meet" x="289" y="-306"/>
<text text-anchor="middle" x="341" y="-208.8" font-family="Times,serif" font-size="14.00" fill="#ff0000">r10</text>
</g>
<!-- r10&#45;&#45;sw2 -->
<g id="edge2" class="edge">
<title>r10&#45;&#45;sw2</title>
<path fill="none" stroke="#000000" stroke-width="2" d="M393.1337,-265.5C446.5052,-265.5 528.984,-265.5 582.3584,-265.5"/>
<text text-anchor="middle" x="485.5" y="-268.9" font-family="Courier,monospace" font-size="12.00" fill="#0000ff"> &#160;&#160;&#160;&#160;&#160;&#160;&#160;&#160;&#160;&#160;&#160;&#160;&#160;&#160;</text>
<text text-anchor="middle" x="563.3584" y="-255.9" font-family="Courier,monospace" font-size="12.00" fill="#0000ff">Et0/2</text>
<text text-anchor="middle" x="412.1337" y="-255.9" font-family="Courier,monospace" font-size="12.00" fill="#0000ff">Et0/0</text>
</g>
<!-- sw5&#45;&#45;router -->
<g id="edge13" class="edge">
<title>sw5&#45;&#45;router</title>
<path fill="none" stroke="#000000" stroke-width="2" d="M980.0012,-475.5C1032.3293,-475.5 1112.5769,-475.5 1164.9296,-475.5"/>
<text text-anchor="middle" x="1072.5" y="-478.9" font-family="Courier,monospace" font-size="12.00" fill="#0000ff"> &#160;&#160;&#160;&#160;&#160;&#160;&#160;&#160;&#160;&#160;&#160;&#160;&#160;&#160;</text>
<text text-anchor="middle" x="1145.9296" y="-465.9" font-family="Courier,monospace" font-size="12.00" fill="#0000ff">Et0/0</text>
<text text-anchor="middle" x="999.0012" y="-465.9" font-family="Courier,monospace" font-size="12.00" fill="#0000ff">Et0/1</text>
</g>
<!-- r4 -->
<g id="node10" class="node">
<title>r4</title>
<polygon fill="none" stroke="#000000" points="104,-434 0,-434 0,-313 104,-313 104,-434"/>
<image xlink:href="R.png" width="104px" height="81px" preserveAspectRatio="xMinYMin meet" x="0" y="-414"/>
<text text-anchor="middle" x="52" y="-316.8" font-family="Times,serif" font-size="14.00" fill="#ff0000">r4</text>
</g>
<!-- r4&#45;&#45;sw1 -->
<g id="edge3" class="edge">
<title>r4&#45;&#45;sw1</title>
<path fill="none" stroke="#000000" stroke-width="2" d="M104.0012,-422C156.3293,-422 236.5769,-422 288.9296,-422"/>
<text text-anchor="middle" x="196.5" y="-376.9" font-family="Courier,monospace" font-size="12.00" fill="#0000ff"> &#160;&#160;&#160;&#160;&#160;&#160;&#160;&#160;&#160;&#160;&#160;&#160;&#160;&#160;</text>
<text text-anchor="middle" x="269.9296" y="-412.4" font-family="Courier,monospace" font-size="12.00" fill="#0000ff">Et0/1</text>
<text text-anchor="middle" x="123.0012" y="-412.4" font-family="Courier,monospace" font-size="12.00" fill="#0000ff">Et0/0</text>
</g>
<!-- r11 -->
<g id="node12" class="node">
<title>r11</title>
<polygon fill="none" stroke="#000000" points="393,-735 289,-735 289,-614 393,-614 393,-735"/>
<image xlink:href="R.png" width="104px" height="81px" preserveAspectRatio="xMinYMin meet" x="289" y="-715"/>
<text text-anchor="middle" x="341" y="-617.8" font-family="Times,serif" font-size="14.00" fill="#ff0000">r11</text>
</g>
<!-- r11&#45;&#45;sw3 -->
<g id="edge1" class="edge">
<title>r11&#45;&#45;sw3</title>
<path fill="none" stroke="#000000" stroke-width="2" d="M393.1337,-660C446.5052,-660 528.984,-660 582.3584,-660"/>
<text text-anchor="middle" x="485.5" y="-677.9" font-family="Courier,monospace" font-size="12.00" fill="#0000ff"> &#160;&#160;&#160;&#160;&#160;&#160;&#160;&#160;&#160;&#160;&#160;&#160;&#160;&#160;</text>
<text text-anchor="middle" x="563.3584" y="-650.4" font-family="Courier,monospace" font-size="12.00" fill="#0000ff">Et0/2</text>
<text text-anchor="middle" x="412.1337" y="-650.4" font-family="Courier,monospace" font-size="12.00" fill="#0000ff">Et0/0</text>
</g>
<!-- sw2&#45;&#45;sw4 -->
<g id="edge8" class="edge">
<title>sw2&#45;&#45;sw4</title>
<path fill="none" stroke="#000000" stroke-width="2" d="M686.6337,-265.5C740.0052,-265.5 822.484,-265.5 875.8584,-265.5"/>
<text text-anchor="middle" x="783.5" y="-268.9" font-family="Courier,monospace" font-size="12.00" fill="#0000ff"> &#160;&#160;&#160;&#160;&#160;&#160;&#160;&#160;&#160;&#160;&#160;&#160;&#160;&#160;</text>
<text text-anchor="middle" x="856.8584" y="-255.9" font-family="Courier,monospace" font-size="12.00" fill="#0000ff">Et0/1</text>
<text text-anchor="middle" x="705.6337" y="-255.9" font-family="Courier,monospace" font-size="12.00" fill="#0000ff">Et0/1</text>
</g>
</g>
</svg>
