<?xml version="1.0" encoding="UTF-8" standalone="no"?>
<!DOCTYPE svg PUBLIC "-//W3C//DTD SVG 1.1//EN"
 "http://www.w3.org/Graphics/SVG/1.1/DTD/svg11.dtd">
<!-- Generated by graphviz version 2.40.1 (20161225.0304)
 -->
<!-- Title: %3 Pages: 1 -->
<svg width="401pt" height="152pt"
 viewBox="0.00 0.00 401.00 152.00" xmlns="http://www.w3.org/2000/svg" xmlns:xlink="http://www.w3.org/1999/xlink">
<g id="graph0" class="graph" transform="scale(1 1) rotate(0) translate(4 148)">
<title>%3</title>
<polygon fill="#ffffff" stroke="transparent" points="-4,4 -4,-148 397,-148 397,4 -4,4"/>
<text text-anchor="middle" x="196.5" y="-7.8" font-family="Times,serif" font-size="14.00" fill="#000000">Network Topology</text>
<!-- sw3 -->
<g id="node1" class="node">
<title>sw3</title>
<polygon fill="none" stroke="#000000" points="104,-144 0,-144 0,-23 104,-23 104,-144"/>
<image xlink:href="R.png" width="104px" height="81px" preserveAspectRatio="xMinYMin meet" x="0" y="-124"/>
<text text-anchor="middle" x="52" y="-26.8" font-family="Times,serif" font-size="14.00" fill="#ff0000">sw3</text>
</g>
<!-- sw6 -->
<g id="node2" class="node">
<title>sw6</title>
<polygon fill="none" stroke="#000000" points="393,-144 289,-144 289,-23 393,-23 393,-144"/>
<image xlink:href="R.png" width="104px" height="81px" preserveAspectRatio="xMinYMin meet" x="289" y="-124"/>
<text text-anchor="middle" x="341" y="-26.8" font-family="Times,serif" font-size="14.00" fill="#ff0000">sw6</text>
</g>
<!-- sw3&#45;&#45;sw6 -->
<g id="edge1" class="edge">
<title>sw3&#45;&#45;sw6</title>
<path fill="none" stroke="#000000" stroke-width="2" d="M104.0012,-83.5C156.3293,-83.5 236.5769,-83.5 288.9296,-83.5"/>
<text text-anchor="middle" x="196.5" y="-86.9" font-family="Courier,monospace" font-size="12.00" fill="#0000ff"> &#160;&#160;&#160;&#160;&#160;&#160;&#160;&#160;&#160;&#160;&#160;&#160;&#160;&#160;</text>
<text text-anchor="middle" x="269.9296" y="-73.9" font-family="Courier,monospace" font-size="12.00" fill="#0000ff">Et0/3</text>
<text text-anchor="middle" x="123.0012" y="-73.9" font-family="Courier,monospace" font-size="12.00" fill="#0000ff">Et1/0</text>
</g>
</g>
</svg>
